<svg width="37" height="43" fill="none" xmlns="http://www.w3.org/2000/svg"><g clip-path="url(#clip0_118_445)" fill="#fff"><path d="M.012 30.493V.067l18.394 18.567L36.89 0l.086.06v30.468c-.067-.052-.131-.092-.184-.144-1.252-1.256-2.507-2.508-3.747-3.776-.112-.115-.175-.328-.175-.495-.01-5.209-.008-10.417-.008-15.625v-.42l-14.317 14.43L4.25 10.087l-.098.045v.356c0 5.156-.002 10.312.005 15.468a.755.755 0 01-.234.578 674.96 674.96 0 00-3.65 3.784c-.07.072-.11.174-.163.262l-.1-.087z"/><path d="M20.926 14.456l-2.427-2.454c-.83.84-1.654 1.678-2.454 2.49l-2.91-2.94 5.34-5.379 5.337 5.38-2.886 2.903zM4.154 29.216v2.112c0 2.414.002 4.828-.006 7.242 0 .15-.05.342-.15.443-1.27 1.295-2.552 2.577-3.832 3.862-.035.035-.076.063-.15.126-.007-.129-.015-.216-.015-.303 0-2.968-.003-5.936.007-8.903 0-.158.064-.356.17-.467 1.247-1.316 2.509-2.619 3.768-3.924.048-.05.103-.093.209-.187h-.001zm28.728.133c1.372 1.381 2.695 2.711 4.012 4.048a.43.43 0 01.102.276c.005 3.074.004 6.149.003 9.223 0 .018-.012.036-.03.081-.066-.055-.13-.1-.184-.155-1.245-1.248-2.49-2.496-3.727-3.751-.098-.1-.188-.263-.188-.397-.01-3.032-.008-6.065-.008-9.098 0-.05.008-.1.02-.227zM6.293 37.363v-6.286c0-.973-.005-1.945.005-2.918.002-.132.045-.298.132-.388 1.252-1.314 2.515-2.617 3.776-3.922.028-.028.062-.05.126-.1.008.129.019.227.02.325.02 2.97.037 5.94.065 8.909a.684.684 0 01-.229.544c-1.206 1.182-2.404 2.375-3.604 3.563-.08.079-.163.152-.292.273zm24.409.017c-1.38-1.367-2.7-2.672-4.014-3.983a.42.42 0 01-.101-.276c.015-3.074.037-6.148.059-9.223 0-.038.006-.075.013-.16.108.102.183.167.252.239 1.19 1.23 2.374 2.463 3.57 3.687a.751.751 0 01.226.579c-.007 2.918-.004 5.835-.004 8.753v.385zM6.286 24.171c0-1.768.014-3.513-.01-5.258-.006-.412.109-.697.406-.977.651-.611 1.267-1.262 1.879-1.88l2.887 2.912-5.161 5.203h-.001zm24.417.016l-5.142-5.183 2.918-2.945c.286.3.61.649.943.989.378.388.77.763 1.142 1.157a.57.57 0 01.153.349c.009 1.828.006 3.657.005 5.486 0 .04-.01.08-.02.147z"/></g><defs><clipPath id="clip0_118_445"><path fill="#fff" d="M0 0h37v43H0z"/></clipPath></defs></svg>