<svg width="37" height="43" fill="none" xmlns="http://www.w3.org/2000/svg"><path d="M.012 30.493V.067c6.131 6.189 12.253 12.369 18.395 18.567L36.89 0l.085.06v30.468c-.067-.052-.13-.092-.183-.144-1.253-1.256-2.508-2.508-3.748-3.776-.112-.115-.175-.328-.175-.495-.01-5.209-.008-10.417-.008-15.625v-.42l-14.317 14.43L4.25 10.087l-.098.045v.356c0 5.156-.001 10.312.005 15.468a.755.755 0 01-.234.578 675.244 675.244 0 00-3.65 3.784c-.07.072-.11.174-.163.262l-.1-.087h.001z" fill="#1A142C"/><path d="M20.926 14.456L18.5 12.002c-.83.84-1.655 1.678-2.455 2.49l-2.91-2.94 5.34-5.379 5.337 5.38-2.885 2.903zM4.154 29.216v2.112c0 2.414.003 4.828-.006 7.242 0 .15-.05.342-.15.443-1.268 1.295-2.55 2.577-3.831 3.862-.035.035-.075.063-.15.126C.01 42.872 0 42.785 0 42.698c0-2.968-.003-5.936.007-8.903 0-.158.064-.356.17-.467 1.247-1.316 2.51-2.619 3.768-3.924.048-.05.103-.093.209-.187zm28.728.133c1.372 1.381 2.695 2.711 4.012 4.048a.43.43 0 01.102.276c.005 3.074.004 6.149.003 9.223 0 .018-.012.036-.03.081-.066-.055-.13-.1-.184-.155-1.245-1.248-2.49-2.496-3.727-3.751-.098-.1-.188-.263-.188-.397-.01-3.032-.008-6.065-.008-9.098 0-.05.008-.1.02-.227zM6.293 37.363v-6.286c0-.973-.005-1.945.006-2.918 0-.132.044-.298.13-.388 1.253-1.314 2.516-2.617 3.778-3.922.027-.028.061-.05.125-.1.008.129.019.227.02.325.02 2.97.037 5.94.065 8.909a.684.684 0 01-.229.544c-1.206 1.182-2.404 2.375-3.604 3.563-.08.079-.162.152-.292.273zm24.409.017c-1.38-1.367-2.7-2.672-4.014-3.983a.42.42 0 01-.1-.276c.015-3.074.037-6.148.058-9.223 0-.038.006-.075.014-.16.107.102.182.167.251.239 1.19 1.23 2.374 2.463 3.57 3.687a.751.751 0 01.226.579c-.006 2.918-.004 5.835-.004 8.753v.385zM6.286 24.171c0-1.768.014-3.513-.01-5.258-.006-.412.109-.697.406-.977.652-.611 1.267-1.262 1.879-1.88l2.887 2.912-5.161 5.203zm24.417.016l-5.142-5.183 2.918-2.945c.286.3.61.649.943.989.378.388.77.763 1.142 1.157a.57.57 0 01.153.349c.01 1.828.006 3.657.005 5.486 0 .04-.01.08-.02.147h.001z" fill="#1A142C"/></svg>