<svg width="24" height="24" fill="none" xmlns="http://www.w3.org/2000/svg"><path d="M5.447 21.822l.2-4.565A8.984 8.984 0 014.86 5.44a8.996 8.996 0 0115.648 2.533 8.985 8.985 0 01-4.482 10.963 8.997 8.997 0 01-6.295.66l-4.284 2.226z" stroke="#7B61FF" stroke-linecap="round" stroke-linejoin="round"/><path d="M13.133 8.133a1.111 1.111 0 011.11 1.111m-1.11-3.333a3.334 3.334 0 013.333 3.333M7.577 6.467H9.8l1.112 2.777-1.39.834a6.111 6.111 0 002.778 2.778l.834-1.39 2.778 1.112V14.8a1.111 1.111 0 01-1.112 1.111 8.889 8.889 0 01-8.333-8.333 1.111 1.111 0 011.111-1.111z" stroke="#7B61FF" stroke-linecap="round" stroke-linejoin="round"/></svg>