<svg width="37" height="43" viewBox="0 0 37 43" fill="none" xmlns="http://www.w3.org/2000/svg">
<g clip-path="url(#clip0_118_445)">
<path d="M0.0118687 30.4934V0.0665246C6.14295 6.25582 12.2653 12.4357 18.4064 18.6344C24.6317 12.3579 30.7603 6.17926 36.8895 0C36.9182 0.0200829 36.9463 0.0401658 36.975 0.0602487V30.5279C36.9082 30.4758 36.8439 30.4356 36.7915 30.3835C35.5392 29.1284 34.2838 27.8757 33.0439 26.608C32.9322 26.4931 32.8691 26.2804 32.8685 26.1128C32.8598 20.9044 32.861 15.696 32.861 10.4883V10.0672C28.0659 14.9003 23.3176 19.6869 18.5437 24.498C13.7442 19.6586 8.99717 14.8726 4.25075 10.0866C4.21829 10.1017 4.18582 10.1168 4.15274 10.1318V10.4877C4.15274 15.644 4.15149 20.8002 4.15773 25.9565C4.15773 26.1944 4.09031 26.3632 3.92425 26.5339C2.70128 27.7891 1.48767 29.0531 0.274692 30.3176C0.204772 30.3904 0.164194 30.4921 0.110505 30.58C0.0774184 30.5511 0.0437071 30.5222 0.0106201 30.4934H0.0118687Z" fill="white"/>
<path d="M20.9259 14.456C20.1362 13.6571 19.3234 12.835 18.4993 12.0015C17.6697 12.8425 16.845 13.6797 16.0447 14.4912C15.0439 13.4808 14.08 12.5067 13.1355 11.5528C14.8922 9.78237 16.697 7.96361 18.4744 6.1731C20.248 7.96047 22.0428 9.76982 23.812 11.5528C22.9018 12.4685 21.9354 13.4412 20.9265 14.456H20.9259Z" fill="white"/>
<path d="M4.15395 29.2163V31.3282C4.15395 33.7419 4.15645 36.1562 4.14771 38.5699C4.14771 38.7199 4.09714 38.912 3.99851 39.013C2.72872 40.3077 1.44644 41.5899 0.166034 42.8746C0.131074 42.9097 0.090496 42.938 0.015582 43.0007C0.00933922 42.8721 0.00122354 42.7848 0.00122354 42.6976C0.000599258 39.7297 -0.00189787 36.7618 0.00809065 33.7946C0.00809065 33.6371 0.0717675 33.4387 0.177271 33.3277C1.42521 32.0122 2.68689 30.7093 3.94607 29.404C3.99414 29.3538 4.04907 29.3111 4.15458 29.2169L4.15395 29.2163Z" fill="white"/>
<path d="M32.8816 29.3486C34.2538 30.73 35.5767 32.0605 36.8939 33.3966C36.9569 33.4606 36.9963 33.5792 36.9963 33.6727C37.0013 36.7473 37 39.8219 36.9994 42.8958C36.9994 42.914 36.9869 42.9322 36.9694 42.9774C36.9026 42.9215 36.839 42.8763 36.7846 42.8217C35.5404 41.5735 34.2944 40.3264 33.0577 39.0706C32.9597 38.9709 32.8704 38.8077 32.8698 38.674C32.8592 35.6415 32.8617 32.609 32.8623 29.5764C32.8623 29.5269 32.8704 29.4767 32.8816 29.3493V29.3486Z" fill="white"/>
<path d="M6.2928 37.3629V31.0769C6.2928 30.1041 6.28781 29.132 6.29842 28.1592C6.29967 28.0274 6.34337 27.8611 6.42952 27.7708C7.68183 26.4572 8.94538 25.1543 10.2064 23.849C10.2339 23.8207 10.2682 23.7994 10.3319 23.7485C10.34 23.8778 10.3506 23.9764 10.3513 24.0743C10.3719 27.044 10.3887 30.0138 10.4168 32.9829C10.4187 33.2132 10.35 33.3682 10.1883 33.527C8.98159 34.7094 7.78421 35.9018 6.58372 37.0905C6.50443 37.1689 6.4214 37.2424 6.29218 37.3629H6.2928Z" fill="white"/>
<path d="M30.7022 37.3806C29.3213 36.0125 28.0015 34.7077 26.6881 33.3967C26.6244 33.3333 26.5863 33.214 26.5869 33.1211C26.6025 30.0466 26.6244 26.9726 26.6456 23.8981C26.6456 23.8604 26.6518 23.8234 26.6593 23.738C26.7667 23.8397 26.8416 23.905 26.9109 23.9765C28.1002 25.2066 29.2851 26.4404 30.4806 27.6636C30.6479 27.8349 30.7078 28.0075 30.7072 28.2429C30.7003 31.1606 30.7028 34.0782 30.7028 36.9959V37.3806H30.7022Z" fill="white"/>
<path d="M6.28594 24.171C6.28594 22.4025 6.29968 20.6578 6.27595 18.913C6.27034 18.5013 6.38458 18.2164 6.68236 17.9365C7.33349 17.3246 7.94903 16.6738 8.56083 16.0569C9.54595 17.0504 10.5117 18.0238 11.4481 18.9677C9.75571 20.6741 8.03456 22.4087 6.28657 24.171H6.28594Z" fill="white"/>
<path d="M30.7029 24.1868C28.9611 22.4314 27.2456 20.7024 25.5607 19.0041C26.504 18.0521 27.4679 17.0793 28.4792 16.0588C28.7651 16.3595 29.0897 16.7078 29.4219 17.0479C29.8002 17.4358 30.1916 17.8111 30.5637 18.2052C30.6467 18.2931 30.716 18.4355 30.7166 18.5535C30.726 20.3823 30.7229 22.2111 30.7216 24.0399C30.7216 24.0794 30.7116 24.1196 30.7023 24.1868H30.7029Z" fill="white"/>
</g>
<defs>
<clipPath id="clip0_118_445">
<rect width="37" height="43" fill="white"/>
</clipPath>
</defs>
</svg>
