<svg width="37" height="43" viewBox="0 0 37 43" fill="none" xmlns="http://www.w3.org/2000/svg">
<path d="M0.0119908 30.4934V0.0665246C6.14307 6.25582 12.2654 12.4357 18.4065 18.6344C24.6318 12.3579 30.7604 6.17926 36.8896 0C36.9184 0.0200829 36.9464 0.0401658 36.9752 0.0602487V30.5279C36.9084 30.4758 36.8441 30.4356 36.7916 30.3835C35.5393 29.1284 34.2839 27.8757 33.0441 26.608C32.9323 26.4931 32.8693 26.2804 32.8686 26.1128C32.8599 20.9044 32.8611 15.696 32.8611 10.4883V10.0672C28.066 14.9003 23.3177 19.6869 18.5438 24.498C13.7443 19.6586 8.9973 14.8726 4.25087 10.0866C4.21841 10.1017 4.18595 10.1168 4.15286 10.1318V10.4877C4.15286 15.644 4.15161 20.8002 4.15785 25.9565C4.15785 26.1944 4.09043 26.3632 3.92437 26.5339C2.7014 27.7891 1.4878 29.0531 0.274814 30.3176C0.204894 30.3904 0.164316 30.4921 0.110627 30.58C0.0775405 30.5511 0.0438292 30.5222 0.0107422 30.4934H0.0119908Z" fill="#1A142C"/>
<path d="M20.9262 14.456C20.1365 13.6571 19.3236 12.835 18.4996 12.0015C17.6699 12.8425 16.8452 13.6797 16.0449 14.4912C15.0442 13.4808 14.0803 12.5067 13.1357 11.5528C14.8925 9.78237 16.6973 7.96361 18.4746 6.1731C20.2482 7.96047 22.043 9.76982 23.8122 11.5528C22.902 12.4685 21.9356 13.4412 20.9268 14.456H20.9262Z" fill="#1A142C"/>
<path d="M4.1542 29.2163V31.3282C4.1542 33.7419 4.15669 36.1562 4.14795 38.5699C4.14795 38.7199 4.09739 38.912 3.99875 39.013C2.72896 40.3077 1.44668 41.5899 0.166278 42.8746C0.131319 42.9097 0.0907401 42.938 0.0158262 43.0007C0.00958336 42.8721 0.00146768 42.7848 0.00146768 42.6976C0.000843399 39.7297 -0.00165373 36.7618 0.00833479 33.7946C0.00833479 33.6371 0.0720116 33.4387 0.177515 33.3277C1.42546 32.0122 2.68713 30.7093 3.94631 29.404C3.99438 29.3538 4.04932 29.3111 4.15482 29.2169L4.1542 29.2163Z" fill="#1A142C"/>
<path d="M32.8816 29.3486C34.2538 30.73 35.5767 32.0605 36.8939 33.3966C36.9569 33.4606 36.9963 33.5792 36.9963 33.6727C37.0013 36.7473 37 39.8219 36.9994 42.8958C36.9994 42.914 36.9869 42.9322 36.9694 42.9774C36.9026 42.9215 36.839 42.8763 36.7846 42.8217C35.5404 41.5735 34.2944 40.3264 33.0577 39.0706C32.9597 38.9709 32.8704 38.8077 32.8698 38.674C32.8592 35.6415 32.8617 32.609 32.8623 29.5764C32.8623 29.5269 32.8704 29.4767 32.8816 29.3493V29.3486Z" fill="#1A142C"/>
<path d="M6.29292 37.3629V31.0769C6.29292 30.1041 6.28793 29.132 6.29854 28.1592C6.29979 28.0274 6.34349 27.8611 6.42964 27.7708C7.68195 26.4572 8.9455 25.1543 10.2066 23.849C10.234 23.8207 10.2684 23.7994 10.332 23.7485C10.3401 23.8778 10.3508 23.9764 10.3514 24.0743C10.372 27.044 10.3888 30.0138 10.4169 32.9829C10.4188 33.2132 10.3501 33.3682 10.1884 33.527C8.98171 34.7094 7.78433 35.9018 6.58384 37.0905C6.50455 37.1689 6.42152 37.2424 6.2923 37.3629H6.29292Z" fill="#1A142C"/>
<path d="M30.7024 37.3806C29.3215 36.0125 28.0018 34.7077 26.6883 33.3967C26.6246 33.3333 26.5865 33.214 26.5872 33.1211C26.6028 30.0466 26.6246 26.9726 26.6458 23.8981C26.6458 23.8604 26.6521 23.8234 26.6596 23.738C26.767 23.8397 26.8419 23.905 26.9112 23.9765C28.1004 25.2066 29.2853 26.4404 30.4808 27.6636C30.6481 27.8349 30.7081 28.0075 30.7074 28.2429C30.7006 31.1606 30.7031 34.0782 30.7031 36.9959V37.3806H30.7024Z" fill="#1A142C"/>
<path d="M6.28606 24.171C6.28606 22.4025 6.2998 20.6578 6.27608 18.913C6.27046 18.5013 6.3847 18.2164 6.68248 17.9365C7.33361 17.3246 7.94915 16.6738 8.56095 16.0569C9.54607 17.0504 10.5118 18.0238 11.4483 18.9677C9.75583 20.6741 8.03468 22.4087 6.28669 24.171H6.28606Z" fill="#1A142C"/>
<path d="M30.703 24.1868C28.9613 22.4314 27.2457 20.7024 25.5608 19.0041C26.5041 18.0521 27.468 17.0793 28.4793 16.0588C28.7652 16.3595 29.0899 16.7078 29.422 17.0479C29.8003 17.4358 30.1917 17.8111 30.5638 18.2052C30.6468 18.2931 30.7161 18.4355 30.7167 18.5535C30.7261 20.3823 30.723 22.2111 30.7217 24.0399C30.7217 24.0794 30.7117 24.1196 30.7024 24.1868H30.703Z" fill="#1A142C"/>
</svg>
