<svg width="24" height="24" viewBox="0 0 24 24" fill="none" xmlns="http://www.w3.org/2000/svg">
<path d="M5.44663 21.8224L5.64615 17.2566C4.10487 15.7169 3.17555 13.6701 3.03097 11.4966C2.8864 9.32318 3.53641 7.17099 4.86016 5.44024C6.1839 3.70949 8.09129 2.51795 10.2277 2.08717C12.3641 1.65638 14.5841 2.01566 16.475 3.09822C18.3659 4.18077 19.7989 5.91292 20.5077 7.97261C21.2165 10.0323 21.1528 12.2794 20.3284 14.296C19.504 16.3127 17.9751 17.9617 16.0259 18.9364C14.0767 19.9111 11.8398 20.1453 9.73126 19.5953L5.44663 21.8224Z" stroke="white" stroke-linecap="round" stroke-linejoin="round"/>
<path d="M13.1327 8.13336C13.4274 8.13336 13.71 8.25042 13.9184 8.45879C14.1268 8.66717 14.2438 8.94978 14.2438 9.24447M13.1327 5.91113C14.0168 5.91113 14.8646 6.26232 15.4898 6.88744C16.1149 7.51256 16.4661 8.36041 16.4661 9.24447M7.57718 6.46669H9.7994L10.9105 9.24447L9.52162 10.0778C10.1166 11.2842 11.093 12.2606 12.2994 12.8556L13.1327 11.4667L15.9105 12.5778V14.8C15.9105 15.0947 15.7934 15.3773 15.5851 15.5857C15.3767 15.7941 15.0941 15.9111 14.7994 15.9111C12.6323 15.7794 10.5884 14.8592 9.05319 13.324C7.51801 11.7888 6.59776 9.74488 6.46606 7.5778C6.46606 7.28311 6.58313 7.0005 6.7915 6.79213C6.99988 6.58375 7.28249 6.46669 7.57718 6.46669Z" stroke="white" stroke-linecap="round" stroke-linejoin="round"/>
</svg>
