<svg width="24" height="24" viewBox="0 0 24 24" fill="none" xmlns="http://www.w3.org/2000/svg">
<path d="M9 9.98315C9 10.1158 9.05268 10.2429 9.14645 10.3367C9.24021 10.4305 9.36739 10.4832 9.5 10.4832C9.63261 10.4832 9.75979 10.4305 9.85355 10.3367C9.94732 10.2429 10 10.1158 10 9.98315V8.98315C10 8.85055 9.94732 8.72337 9.85355 8.6296C9.75979 8.53583 9.63261 8.48315 9.5 8.48315C9.36739 8.48315 9.24021 8.53583 9.14645 8.6296C9.05268 8.72337 9 8.85055 9 8.98315V9.98315ZM9 9.98315C9 11.3092 9.52678 12.581 10.4645 13.5187C11.4021 14.4564 12.6739 14.9832 14 14.9832M14 14.9832H15C15.1326 14.9832 15.2598 14.9305 15.3536 14.8367C15.4473 14.7429 15.5 14.6158 15.5 14.4832C15.5 14.3505 15.4473 14.2234 15.3536 14.1296C15.2598 14.0358 15.1326 13.9832 15 13.9832H14C13.8674 13.9832 13.7402 14.0358 13.6464 14.1296C13.5527 14.2234 13.5 14.3505 13.5 14.4832C13.5 14.6158 13.5527 14.7429 13.6464 14.8367C13.7402 14.9305 13.8674 14.9832 14 14.9832ZM3 20.9831L4.65 17.1831C3.38766 15.3912 2.82267 13.2002 3.06104 11.0212C3.29942 8.8423 4.32479 6.82526 5.94471 5.34864C7.56463 3.87203 9.66775 3.03734 11.8594 3.00122C14.051 2.96511 16.1805 3.73005 17.8482 5.1525C19.5159 6.57494 20.6071 8.5571 20.9172 10.727C21.2272 12.8969 20.7347 15.1053 19.5321 16.9379C18.3295 18.7705 16.4994 20.1011 14.3854 20.6802C12.2713 21.2593 10.0186 21.047 8.05 20.0831L3 20.9831Z" stroke="#1A142C" stroke-linecap="round" stroke-linejoin="round"/>
</svg>
